<svg width="198" height="399" viewBox="0 0 198 399" fill="none" xmlns="http://www.w3.org/2000/svg">
<path d="M169.01 0.933594H150.805C151.642 2.99142 151.962 5.22408 151.736 7.43489C151.509 9.6457 150.744 11.7668 149.507 13.6113C148.271 15.4558 146.601 16.9671 144.644 18.012C142.687 19.0569 140.504 19.6034 138.287 19.6033H58.3837C56.1669 19.6032 53.9841 19.0566 52.0276 18.0116C50.0711 16.9666 48.401 15.4553 47.1645 13.6108C45.9279 11.7663 45.1628 9.64532 44.9366 7.4346C44.7103 5.22389 45.0299 2.99132 45.8672 0.933594H28.8629C21.3163 0.933594 14.0789 3.93884 8.74262 9.2882C3.40638 14.6376 0.40851 21.8929 0.408508 29.458V390.977C0.408515 398.542 3.40638 405.797 8.74262 411.147C14.0789 416.496 21.3163 419.501 28.8629 419.501H169.01C176.556 419.501 183.794 416.496 189.13 411.147C194.466 405.797 197.464 398.542 197.464 390.977V29.4574C197.464 21.8924 194.466 14.6372 189.13 9.28799C183.794 3.93875 176.556 0.933589 169.01 0.933594H169.01Z" fill="white"/>
</svg>
